<svg class="icon" viewBox="0 0 1024 1024" xmlns="http://www.w3.org/2000/svg" width="128" height="128"><path d="M864 448a32 32 0 1 0 0 64 32 32 0 0 0 0-64z" fill="#1296db"/><path d="M516.576 864c-13.312 0-26.56-1.152-39.424-3.456a32 32 0 0 1-13.184-57.408 135.168 135.168 0 0 0 50.816-74.048 673.856 673.856 0 0 1-264.416-124.352c-42.528 73.184-132.416 121.76-221.76 112.448a32 32 0 0 1-20.672-52.928c73.728-84.128 81.536-216.384 18.176-307.648a32 32 0 0 1 33.216-49.504c71.392 15.808 135.68 54.848 181.248 109.12a560 560 0 0 1 228.64-117.088A266.56 266.56 0 0 0 422.4 219.52a32 32 0 0 1 20.96-52.544C473.664 163.68 508 160 542.336 160c33.664 0 63.104 3.584 90.016 10.944 56.704 15.52 116.8 57.568 135.04 119.04 86.4 21.76 164.736 72.416 217.344 141.184 30.784 40.192 43.552 78.72 37.952 114.464-4.64 29.824-21.92 58.048-52.768 86.272a351.04 351.04 0 0 1-149.024 80.224c-7.936 2.048-16 3.84-24.096 5.632-21.76 4.8-42.304 9.344-57.856 19.072-13.376 8.384-24.704 21.76-36.704 35.872a408 408 0 0 1-24 26.592C636.608 840.416 577.664 864 516.576 864zM238.144 520.8a32 32 0 0 1 21.376 8.192c81.152 72.96 186.528 123.808 296.704 143.104a32 32 0 0 1 26.432 32.576 190.464 190.464 0 0 1-26.816 90.72c29.568-6.912 56.96-21.44 77.44-41.632 7.168-7.072 13.664-14.784 20.16-22.464 13.952-16.448 29.76-35.072 51.52-48.672 24.96-15.616 53.12-21.856 78.048-27.36 7.36-1.6 14.72-3.232 21.92-5.12a286.88 286.88 0 0 0 121.792-65.472c19.712-18.016 30.4-34.016 32.768-48.96 2.784-17.76-5.824-39.872-25.536-65.664C886.464 408 813.632 363.552 734.176 348.096a32 32 0 0 1-25.696-27.84c-4.928-44.032-51.68-76.256-93.056-87.584-30.784-8.48-69.856-10.08-110.624-7.264 16.544 28.352 28.8 58.944 36.128 90.56a32 32 0 0 1-25.504 38.72c-97.248 17.504-188.48 64.352-256.864 131.904a32 32 0 0 1-49.344-5.344c-22.368-34.496-54.656-63.68-92.064-84.384 27.52 82.016 20.16 173.824-20.608 250.784 52.128-15.36 96.896-55.456 110.848-103.712a32 32 0 0 1 30.72-23.136z" fill="#1296db"/><path d="M786.4 592a15.744 15.744 0 0 1-5.792-1.088c-18.464-7.168-33.536-26.464-39.392-50.336-5.536-22.464-2.72-48.512 7.36-67.936a16 16 0 0 1 28.416 14.72c-6.56 12.64-8.416 30.56-4.736 45.568 3.328 13.504 11.328 24.832 19.936 28.16A16 16 0 0 1 786.4 592z" fill="#1296db"/></svg>